<svg width="76" height="35" xmlns="http://www.w3.org/2000/svg"><g fill="#FFF" fill-rule="evenodd"><path d="M8.048 12.798c-.047.513-.093.326-.047.793.047.28.093.559.14.791 0 .373 0 .7.091.979.047.234.231.746.555 1.212.277.466.508.7.739.839.323.186.647.233 1.016.326.693.233.97.326 2.264.326.416 0 .786-.093 1.201-.093.046 0 .832-.046 1.202-.14.323-.14.6-.326.923-.466 0 0 .509-.186.74-.326.276-.233.416-.512.646-.792.555-.652.601-.466.832-1.305.277-.84.37-1.724.37-2.004 0-1.864.185-.885-.37-2.33-.138-.373-.277-.792-.509-1.165-.184-.233-.276-.28-.646-.652-.508-.42-.693-.606-.97-.746-.97-.606-2.68-.746-2.864-.746-.555-.047-1.11 0-1.71-.047-.416-.046-.6-.093-.831-.093-.14.047-.324.093-.647.187-.278.093-.555.14-.832.28-.831.465-1.2 1.863-1.2 1.91-.047.093-.093 1.445-.093 2.33v.932zm18.017-.42c0 .42.047.84.047 1.306 0 2.33-.694 3.68-1.11 4.567-.138.373-.277.792-.462 1.118-.23.373-.554.7-.785 1.072-.555.792-.6.932-1.016 1.305-.508.466-1.432 1.072-1.478 1.072-1.11.746-1.802 1.398-4.297 1.817-.23.047-.508.047-.74.093-.23.047-.415.094-.646.14-.046 0-1.34.093-2.079.093-.785 0-1.525-.186-2.264-.186-.138 0-1.294.047-1.386.093a1.65 1.65 0 0 0-.461.093c-.14.047-.37.094-.509.14-.277.14-.739.7-.878.885-.046.14-.092.327-.092.373a9.01 9.01 0 0 0-.138 1.166c0 .28.045.512.092.745 0 .187 0 .42.046.606.046.606.092.699.092 1.072 0 .233-.046.42 0 .652 0 .653.093.607.047 1.538-.047.466-.093.886-.508 1.165-.462.373-1.386.466-2.726.466-.832 0-1.756-.093-2.587-.093-1.063.046-1.11.233-1.571-.373-.37-.512-.462-.746-.462-1.352 0-.372.046-.698.046-1.07 0-.7.046-1.352.046-2.051 0-.42.046-.886.046-1.352 0-.792-.138-1.584-.138-2.377.046-.558.092-1.165.046-1.678v-1.817c0-1.259.138-2.47.138-3.728 0-.56-.046-1.119 0-1.678.047-.373.14-.746.14-1.165 0-.466-.093-.932-.047-1.444 0-.373.046-.746 0-1.072-.046-.513-.139-1.026-.139-1.492 0-.512.046-1.025.046-1.49 0-.607-.046-1.166-.046-1.772 0-.466.046-.978 0-1.49-.092-.794-.23-1.54-.23-2.33 0-1.12.092-1.958 1.154-2.518 1.11-.652.925-.42 2.172-.466.462-.046.924-.14 1.432-.14.693 0 1.386.047 2.079 0 .554 0 1.109-.046 1.663-.093.508 0 1.016 0 1.524-.046.324 0 .694-.047 1.017-.047.785 0 1.525.047 2.264.093 1.386 0 2.125-.093 4.527.746.231.046 1.016.28 1.71.652.415.187.831.466 1.247.699.323.187 1.293.746 2.125 1.538.647.653.878 1.118 1.155 1.491.092.187 1.155 1.725 1.478 2.983.139.513.185 1.072.23 1.631.047.373.14.792.186 1.165v.745zM33.41.821c1.248 0 1.479-.232 2.034.373.646.653.415.979.369 1.445v.513c0 .373-.046.745-.046 1.118-.047.746.092 1.538.092 2.284 0 .326-.046.931-.139 1.677-.046.326-.092.7-.092 1.026.046.28.092.559.092.838.047.327-.092 1.306.508 1.306.463 0 1.017-.42 1.387-.607.323-.186.508-.186 1.108-.326.324-.093.647-.186.97-.233.324-.046.6-.046.924-.093.324 0 .693-.047 1.017-.047.37 0 1.802.14 2.125.233.139.047 1.617.7 2.495 1.305.37.28.6.699.878 1.072.646.84.693.56 1.062 1.538.093.28.231.512.323.792l.278.839c.508 1.678.184 3.076.184 4.753 0 .746.047 1.492.092 2.191 0 .7-.045 1.445-.045 2.143v1.678c-.047.42-.047.886-.047 1.352 0 .466.047.932 0 1.444 0 .327-.046.7-.046 1.025-.046 1.491.231 1.91-.37 2.564-.738.838-.692.699-1.755.699-.416 0-.74.047-1.155.047-.323 0-.693-.047-1.063 0-.461 0-.97.046-1.432.046-.277 0-.647.233-1.109-.28-.554-.606-.37-1.444-.37-2.237v-1.071c.047-.42.093-.84.093-1.26 0-.511-.046-1.024 0-1.537.047-.373.093-.745.093-1.118 0-.56-.046-1.118-.046-1.678 0-.466.046-.932.046-1.398l-.139-1.398c-.046-.885-.138-1.538-.23-1.864-.14-.373-.093-.186-.278-.606-.138-.233-.231-.466-.416-.652-.23-.186-.832-.606-1.663-.606-.37 0-.693.093-.785.093-.74.187-.97.327-1.387.932-.23.326-.461.606-.6.932-.324.652-.693 2.237-.693 4.148 0 .745.093 1.537.093 2.283-.047.7-.093 1.352-.047 2.004 0 .513.093.98.093 1.445 0 .466-.139.885-.093 1.351.047.42.278.979-.184 1.771-.278.466-.647.746-1.664.7a26.79 26.79 0 0 0-1.94-.094c-.6 0-1.155.047-1.71.047-.83.047-1.016 0-1.386-.373-.646-.7-.415-.98-.415-1.818v-1.49c.046-.7.092-1.352.092-2.051-.046-1.865-.092-3.682-.092-5.546 0-1.258 0-2.563.046-3.821 0-.466.046-.886.046-1.352 0-.653-.046-1.258-.046-1.911 0-.42.046-.885.046-1.351-.046-.56-.092-1.118-.046-1.678 0-.419.046-.839.046-1.258 0-.42-.046-.839 0-1.258 0-.373.047-.746.047-1.072-.047-.513-.093-1.025-.093-1.584 0-.653.046-1.306.046-2.005-.046-.512-.092-1.025-.092-1.537 0-.28.046-.56.046-.839 0-.373-.139-1.864 1.433-2.051.507-.046 1.016.047 1.523.093h1.988zM60.298 18.158c-.324.233-.555.512-.647.605-.324.42-1.294 1.445-1.294 3.076 0 1.445.231 2.098.508 2.75.14.326.278.652.462.978.416.56 1.433 1.305 2.08 1.538.277.093.369.14.923.233.324.047.647.093.97.093.37 0 .555-.046.879-.14 1.016-.233 1.432-.559 2.17-1.165.093-.046.601-.42.878-.792.277-.373.185-.373.509-1.025.092-.233.23-.466.277-.699.138-.326.277-1.538.277-1.864 0-.513-.323-1.725-.554-2.19-.186-.327-.277-.467-.786-.932-.785-.746-.554-.606-1.247-.933-1.016-.465-.693-.326-1.524-.465-.324-.047-.601-.094-.878-.14-.786 0-2.403.652-3.003 1.072zm3.049-8.156c.416-.046.878-.093 1.34-.093.831 0 2.68.42 3.418.746.416.186.832.419 1.247.652.648.326 1.063.373 2.033 1.258 1.063.932 1.155 1.212 1.71 1.864.323.42.739.793 1.016 1.259.231.372.508.978.832 1.91.184.513.785 2.05.785 3.729 0 .606-.093 1.211-.138 1.77 0 .047-.047 1.212-.186 1.771-.138.653-.461 1.305-.507 1.445-.186.372-.278.792-.463 1.212-.415 1.025-.877 1.49-1.524 2.33-1.201 1.63-.924 1.352-2.125 2.143-.277.233-.555.42-.878.606-.37.187-.462.187-1.017.42-.323.093-.554.233-.83.373-.186.092-1.064.42-1.85.558-.784.14-1.154.094-1.893.14-.462 0-.924.094-1.386.094-.647 0-.924-.094-2.125-.28-1.479-.233-1.756-.28-2.54-.652-.694-.326-2.31-1.212-2.911-1.678-.509-.42-.647-.652-.832-.932-.231-.28-.462-.606-.693-.885a5.565 5.565 0 0 1-.508-.56c-.924-1.071-1.202-2.097-1.617-3.402-.231-.745-.416-1.258-.508-2.05-.047-.746 0-.56.046-1.585 0-.466-.093-.932-.093-1.398 0-.373.139-1.584.231-1.91.093-.28.185-.56.324-.886.23-.652.185-.652.37-1.025.23-.42.553-.84.83-1.212.37-.559.832-1.305 1.34-1.724.14-.14.324-.233.463-.373.323-.233.831-.839.831-.839.093-.093.323-.326.601-.512.647-.466.74-.42 1.432-.793.415-.233.785-.512 1.201-.699.97-.465 2.402-.792 3.51-.792h1.064z"/></g></svg>